<svg version="1.1" xmlns="http://www.w3.org/2000/svg" xmlns:xlink="http://www.w3.org/1999/xlink" width="240" height="365" viewBox="0,0,240,365"><g transform="translate(27.21796,16.22824)"><g stroke-miterlimit="10"><path d="M-27.21796,348.77176v-365h240v365z" fill-opacity="0.23529" fill="#000000" stroke="none" stroke-width="0"/><path d="M27,236.5v-153h146v153z" fill="#ffffff" stroke="#000000" stroke-width="0.5"/><path d="M77.32868,111.60246l1.56296,-5.65207l37.77968,10.44715l-1.56296,5.65207z" fill="#ffffff" stroke="#000000" stroke-width="1"/><path d="M109.81555,120.58601l1.56296,-5.65207l5.29281,1.46361l-1.56296,5.65207z" fill="#000000" stroke="#000000" stroke-width="1"/><path d="M114.97209,111.76453c0,-0.93752 0.76001,-1.69753 1.69753,-1.69753c0.93752,0 1.69753,0.76001 1.69753,1.69753c0,0.93752 -0.76001,1.69753 -1.69753,1.69753c-0.93752,0 -1.69753,-0.76001 -1.69753,-1.69753z" fill="#000000" stroke="#000000" stroke-width="1"/><path d="M118.72899,96.0463c0,-0.93752 0.76001,-1.69753 1.69753,-1.69753c0.93752,0 1.69753,0.76001 1.69753,1.69753c0,0.93752 -0.76001,1.69753 -1.69753,1.69753c-0.93752,0 -1.69753,-0.76001 -1.69753,-1.69753z" fill="#000000" stroke="#000000" stroke-width="1"/><path d="M112.46441,103.01752c0,-0.93752 0.76001,-1.69753 1.69753,-1.69753c0.93752,0 1.69753,0.76001 1.69753,1.69753c0,0.93752 -0.76001,1.69754 -1.69753,1.69754c-0.93752,0 -1.69753,-0.76002 -1.69753,-1.69754z" fill="#000000" stroke="#000000" stroke-width="1"/><text transform="translate(91.78204,124.2127) scale(0.975,0.975)" font-size="40" xml:space="preserve" fill="#ff0000" stroke="none" stroke-width="1" font-family="Sans Serif" font-weight="normal" text-anchor="start"><tspan x="0" dy="0">！</tspan></text></g></g></svg>