<svg version="1.1" xmlns="http://www.w3.org/2000/svg" xmlns:xlink="http://www.w3.org/1999/xlink" width="10.65964" height="20.11329" viewBox="0,0,10.65964,20.11329"><g transform="translate(-114.96441,-139.84877)"><g fill="#000000" stroke="#000000" stroke-miterlimit="10"><path d="M117.97209,157.76453c0,-0.93752 0.76001,-1.69753 1.69753,-1.69753c0.93752,0 1.69753,0.76001 1.69753,1.69753c0,0.93752 -0.76001,1.69753 -1.69753,1.69753c-0.93752,0 -1.69753,-0.76001 -1.69753,-1.69753z"/><path d="M121.72899,142.0463c0,-0.93752 0.76001,-1.69753 1.69753,-1.69753c0.93752,0 1.69753,0.76001 1.69753,1.69753c0,0.93752 -0.76001,1.69753 -1.69753,1.69753c-0.93752,0 -1.69753,-0.76001 -1.69753,-1.69753z"/><path d="M115.46441,149.01752c0,-0.93752 0.76001,-1.69753 1.69753,-1.69753c0.93752,0 1.69753,0.76001 1.69753,1.69753c0,0.93752 -0.76001,1.69754 -1.69753,1.69754c-0.93752,0 -1.69753,-0.76002 -1.69753,-1.69754z"/></g></g></svg>