<svg version="1.1" xmlns="http://www.w3.org/2000/svg" xmlns:xlink="http://www.w3.org/1999/xlink" width="92.75" height="46.07004" viewBox="0,0,92.75,46.07004"><g transform="translate(-56.11668,-135.53905)"><g stroke-miterlimit="10"><path d="M80.32868,157.60247l1.56296,-5.65207l37.77968,10.44715l-1.56296,5.65207z" fill="#ffffff" stroke="#000000" stroke-width="1"/><path d="M112.81556,166.58603l1.56296,-5.65207l5.29281,1.46361l-1.56296,5.65207z" fill="#000000" stroke="#000000" stroke-width="1"/><text transform="translate(85.39355,170.31479) scale(0.89402,0.89402)" font-size="40" xml:space="preserve" fill="#000000" stroke="none" stroke-width="1" font-family="&quot;STXIHEI&quot;, Sans Serif" font-weight="normal" text-anchor="start"><tspan x="0" dy="0">✕</tspan></text><path d="M117.36668,157.41405c0,-1.38071 1.11929,-2.5 2.5,-2.5c1.38071,0 2.5,1.11929 2.5,2.5c0,1.38071 -1.11929,2.5 -2.5,2.5c-1.38071,0 -2.5,-1.11929 -2.5,-2.5z" fill="#000000" stroke="none" stroke-width="0.5"/><path d="M113.36668,151.16405c0,-1.38071 1.11929,-2.5 2.5,-2.5c1.38071,0 2.5,1.11929 2.5,2.5c0,1.38071 -1.11929,2.5 -2.5,2.5c-1.38071,0 -2.5,-1.11929 -2.5,-2.5z" fill="#000000" stroke="none" stroke-width="0.5"/><path d="M119.36668,145.66405c0,-1.38071 1.11929,-2.5 2.5,-2.5c1.38071,0 2.5,1.11929 2.5,2.5c0,1.38071 -1.11929,2.5 -2.5,2.5c-1.38071,0 -2.5,-1.11929 -2.5,-2.5z" fill="#000000" stroke="none" stroke-width="0.5"/><path d="M56.11668,180.16405v-44.625h92.75v44.625z" fill-opacity="0.00784" fill="#ffffff" stroke="none" stroke-width="0"/></g></g></svg>