<svg version="1.1" xmlns="http://www.w3.org/2000/svg" xmlns:xlink="http://www.w3.org/1999/xlink" width="65.85776" height="57.4494" viewBox="0,0,65.85776,57.4494"><g transform="translate(-68.63801,-139.84877)"><g stroke-miterlimit="10"><path d="M80.32868,157.60246l1.56296,-5.65207l37.77968,10.44715l-1.56296,5.65207z" fill="#ffffff" stroke="#000000"/><path d="M112.81555,166.58601l1.56296,-5.65207l5.29281,1.46361l-1.56296,5.65207z" fill="#000000" stroke="#000000"/><path d="M117.97209,157.76453c0,-0.93752 0.76001,-1.69753 1.69753,-1.69753c0.93752,0 1.69753,0.76001 1.69753,1.69753c0,0.93752 -0.76001,1.69753 -1.69753,1.69753c-0.93752,0 -1.69753,-0.76001 -1.69753,-1.69753z" fill="#000000" stroke="#000000"/><path d="M121.72899,142.0463c0,-0.93752 0.76001,-1.69753 1.69753,-1.69753c0.93752,0 1.69753,0.76001 1.69753,1.69753c0,0.93752 -0.76001,1.69753 -1.69753,1.69753c-0.93752,0 -1.69753,-0.76001 -1.69753,-1.69753z" fill="#000000" stroke="#000000"/><path d="M115.46441,149.01752c0,-0.93752 0.76001,-1.69753 1.69753,-1.69753c0.93752,0 1.69753,0.76001 1.69753,1.69753c0,0.93752 -0.76001,1.69754 -1.69753,1.69754c-0.93752,0 -1.69753,-0.76002 -1.69753,-1.69754z" fill="#000000" stroke="#000000"/><text transform="translate(68.88801,190.98158) scale(0.5,0.5)" font-size="40" xml:space="preserve" fill="#000000" stroke="none" font-family="&quot;STXIHEI&quot;, Sans Serif" font-weight="normal" text-anchor="start"><tspan x="0" dy="0">Smoke</tspan></text></g></g></svg>