<svg version="1.1" xmlns="http://www.w3.org/2000/svg" xmlns:xlink="http://www.w3.org/1999/xlink" width="156" height="84" viewBox="0,0,156,84"><g transform="translate(-22,-106)"><g stroke="#000000" stroke-miterlimit="10"><path d="M22.5,189.5v-83h155v83z" fill="#8e8e8e"/><g><path d="M77.60232,133.40327l1.56296,-5.65207l37.77968,10.44715l-1.56296,5.65207z" fill="#ffffff"/><path d="M110.08918,142.38681l1.56296,-5.65207l5.29281,1.46361l-1.56296,5.65207z" fill="#000000"/><path d="M115.24573,133.56534c0,-0.93752 0.76001,-1.69753 1.69753,-1.69753c0.93752,0 1.69753,0.76001 1.69753,1.69753c0,0.93752 -0.76001,1.69753 -1.69753,1.69753c-0.93752,0 -1.69753,-0.76001 -1.69753,-1.69753z" fill="#000000"/><path d="M119.00263,117.84711c0,-0.93752 0.76001,-1.69753 1.69753,-1.69753c0.93752,0 1.69753,0.76001 1.69753,1.69753c0,0.93752 -0.76001,1.69753 -1.69753,1.69753c-0.93752,0 -1.69753,-0.76001 -1.69753,-1.69753z" fill="#000000"/><path d="M112.73805,124.81832c0,-0.93752 0.76001,-1.69753 1.69753,-1.69753c0.93752,0 1.69753,0.76001 1.69753,1.69753c0,0.93752 -0.76001,1.69754 -1.69753,1.69754c-0.93752,0 -1.69753,-0.76002 -1.69753,-1.69754z" fill="#000000"/></g></g></g></svg>