<svg version="1.1" xmlns="http://www.w3.org/2000/svg" xmlns:xlink="http://www.w3.org/1999/xlink" width="116.5" height="47.5" viewBox="0,0,116.5,47.5"><g transform="translate(-41.75,-136.25)"><g stroke-miterlimit="10"><path d="M42,183.5v-47h116v47z" fill="#ffffff" stroke="#000000" stroke-width="0.5"/><text transform="translate(79.64729,167.37528) scale(0.2547,0.2547)" font-size="40" xml:space="preserve" fill="#000000" stroke="none" stroke-width="1" font-family="&quot;STXIHEI&quot;, Sans Serif" font-weight="normal" text-anchor="start"><tspan x="0" dy="0">被监管者</tspan></text><g stroke="#000000" stroke-width="1"><path d="M90.04566,149.17733l0.70916,-2.56453l17.14187,4.74021l-0.70916,2.56453z" fill="#ffffff"/><path d="M104.78601,153.25346l0.70916,-2.56453l2.40152,0.66409l-0.70916,2.56453z" fill="#000000"/><path d="M107.12569,149.25086c0,-0.42538 0.34484,-0.77022 0.77022,-0.77022c0.42538,0 0.77022,0.34484 0.77022,0.77022c0,0.42538 -0.34484,0.77022 -0.77022,0.77022c-0.42538,0 -0.77022,-0.34484 -0.77022,-0.77022z" fill="#000000"/><path d="M108.83032,142.11899c0,-0.42538 0.34484,-0.77022 0.77022,-0.77022c0.42538,0 0.77022,0.34484 0.77022,0.77022c0,0.42538 -0.34484,0.77022 -0.77022,0.77022c-0.42538,0 -0.77022,-0.34484 -0.77022,-0.77022z" fill="#000000"/><path d="M105.98788,145.28207c0,-0.42538 0.34484,-0.77022 0.77022,-0.77022c0.42538,0 0.77022,0.34484 0.77022,0.77022c0,0.42538 -0.34484,0.77023 -0.77022,0.77023c-0.42538,0 -0.77022,-0.34485 -0.77022,-0.77023z" fill="#000000"/></g><text transform="translate(67.32856,178.28707) scale(0.24166,0.24166)" font-size="40" xml:space="preserve" fill="#000000" stroke="none" stroke-width="1" font-family="&quot;STXIHEI&quot;, Sans Serif" font-weight="normal" text-anchor="start"><tspan x="0" dy="0">The Managed</tspan></text></g></g></svg>